<mxfile host="Electron" modified="2023-10-19T11:42:15.877Z" agent="Mozilla/5.0 (Windows NT 10.0; Win64; x64) AppleWebKit/537.36 (KHTML, like Gecko) draw.io/22.0.3 Chrome/114.0.5735.289 Electron/25.8.4 Safari/537.36" etag="Gflxtz2Lr_V24x_K-ord" version="22.0.3" type="device">
  <diagram id="C5RBs43oDa-KdzZeNtuy" name="Page-1">
    <mxGraphModel dx="3337" dy="2087" grid="1" gridSize="10" guides="1" tooltips="1" connect="1" arrows="1" fold="1" page="1" pageScale="1" pageWidth="827" pageHeight="1169" math="0" shadow="0">
      <root>
        <mxCell id="WIyWlLk6GJQsqaUBKTNV-0" />
        <mxCell id="WIyWlLk6GJQsqaUBKTNV-1" parent="WIyWlLk6GJQsqaUBKTNV-0" />
        <mxCell id="UXU0SN2zvPq1hkEczTm--28" style="edgeStyle=orthogonalEdgeStyle;rounded=0;orthogonalLoop=1;jettySize=auto;html=1;entryX=0.5;entryY=0;entryDx=0;entryDy=0;" edge="1" parent="WIyWlLk6GJQsqaUBKTNV-1" source="WIyWlLk6GJQsqaUBKTNV-3" target="UXU0SN2zvPq1hkEczTm--0">
          <mxGeometry relative="1" as="geometry" />
        </mxCell>
        <mxCell id="WIyWlLk6GJQsqaUBKTNV-3" value="&lt;b&gt;Старт функционала Class MAIN&lt;/b&gt;&lt;br&gt;&lt;br&gt;Создание подключения к обоим БД.&lt;br&gt;connectToRecieveDB();&lt;br&gt;connectToCFT();&lt;br&gt;Запускаем процесс выгрузки, расчета и вставки. Во входной параметр передаём количество расчитываемых кредитов за раз.&lt;br&gt;calcAndTransferCreds(batch);" style="rounded=1;whiteSpace=wrap;html=1;fontSize=12;glass=0;strokeWidth=1;shadow=0;" parent="WIyWlLk6GJQsqaUBKTNV-1" vertex="1">
          <mxGeometry x="-515" y="60" width="170" height="200" as="geometry" />
        </mxCell>
        <mxCell id="UXU0SN2zvPq1hkEczTm--0" value="Далее в методе calcAndTransferCreds(batch);&lt;br&gt;производится весь расчет задолженностей в нескольких шагах" style="rounded=1;whiteSpace=wrap;html=1;" vertex="1" parent="WIyWlLk6GJQsqaUBKTNV-1">
          <mxGeometry x="-515" y="310" width="170" height="190" as="geometry" />
        </mxCell>
        <mxCell id="UXU0SN2zvPq1hkEczTm--14" value="Шаг 1" style="swimlane;fontStyle=0;childLayout=stackLayout;horizontal=1;startSize=30;horizontalStack=0;resizeParent=1;resizeParentMax=0;resizeLast=0;collapsible=1;marginBottom=0;whiteSpace=wrap;html=1;" vertex="1" parent="WIyWlLk6GJQsqaUBKTNV-1">
          <mxGeometry x="-260" y="330" width="170" height="150" as="geometry" />
        </mxCell>
        <mxCell id="UXU0SN2zvPq1hkEczTm--15" value="Актуализация справочников &quot;Виды задолженностей&quot; и &quot;Виды операций по договору&quot;.&lt;br&gt;По операциям необходимо заполнить массив &quot;Участие в задолженности&quot;" style="text;strokeColor=none;fillColor=none;align=left;verticalAlign=middle;spacingLeft=4;spacingRight=4;overflow=hidden;points=[[0,0.5],[1,0.5]];portConstraint=eastwest;rotatable=0;whiteSpace=wrap;html=1;" vertex="1" parent="UXU0SN2zvPq1hkEczTm--14">
          <mxGeometry y="30" width="170" height="120" as="geometry" />
        </mxCell>
        <mxCell id="UXU0SN2zvPq1hkEczTm--19" value="Шаг 2" style="swimlane;fontStyle=0;childLayout=stackLayout;horizontal=1;startSize=30;horizontalStack=0;resizeParent=1;resizeParentMax=0;resizeLast=0;collapsible=1;marginBottom=0;whiteSpace=wrap;html=1;" vertex="1" parent="WIyWlLk6GJQsqaUBKTNV-1">
          <mxGeometry x="-10" y="350" width="170" height="110" as="geometry" />
        </mxCell>
        <mxCell id="UXU0SN2zvPq1hkEczTm--20" value="Выгрузка списка всех ID кредитов на основе которых будет производится выгрузка." style="text;strokeColor=none;fillColor=none;align=left;verticalAlign=middle;spacingLeft=4;spacingRight=4;overflow=hidden;points=[[0,0.5],[1,0.5]];portConstraint=eastwest;rotatable=0;whiteSpace=wrap;html=1;" vertex="1" parent="UXU0SN2zvPq1hkEczTm--19">
          <mxGeometry y="30" width="170" height="80" as="geometry" />
        </mxCell>
        <mxCell id="UXU0SN2zvPq1hkEczTm--22" value="Шаг 3" style="swimlane;fontStyle=0;childLayout=stackLayout;horizontal=1;startSize=30;horizontalStack=0;resizeParent=1;resizeParentMax=0;resizeLast=0;collapsible=1;marginBottom=0;whiteSpace=wrap;html=1;" vertex="1" parent="WIyWlLk6GJQsqaUBKTNV-1">
          <mxGeometry x="220" y="320" width="170" height="170" as="geometry" />
        </mxCell>
        <mxCell id="UXU0SN2zvPq1hkEczTm--23" value="Выгрузка кредитов по пачкам указанного размера в переменной batch. Формирование collectionId для задолженностей и наполнение ФО и ПО при помощи методов FillCollections.fillFOInCreds и аналогичного для ПО." style="text;strokeColor=none;fillColor=none;align=left;verticalAlign=middle;spacingLeft=4;spacingRight=4;overflow=hidden;points=[[0,0.5],[1,0.5]];portConstraint=eastwest;rotatable=0;whiteSpace=wrap;html=1;" vertex="1" parent="UXU0SN2zvPq1hkEczTm--22">
          <mxGeometry y="30" width="170" height="140" as="geometry" />
        </mxCell>
        <mxCell id="UXU0SN2zvPq1hkEczTm--24" value="Шаг 4" style="swimlane;fontStyle=0;childLayout=stackLayout;horizontal=1;startSize=30;horizontalStack=0;resizeParent=1;resizeParentMax=0;resizeLast=0;collapsible=1;marginBottom=0;whiteSpace=wrap;html=1;" vertex="1" parent="WIyWlLk6GJQsqaUBKTNV-1">
          <mxGeometry x="470" y="305" width="170" height="200" as="geometry" />
        </mxCell>
        <mxCell id="UXU0SN2zvPq1hkEczTm--25" value="Затем определяем для кажого кредита в пуле какие задолженности присутствуют в видах операций и производим расчет по каждой в зависимости от её вида. Результаты суммируем и кладем в список кредитов и список задолженностей по моделям PrCred и Debt." style="text;strokeColor=none;fillColor=none;align=left;verticalAlign=middle;spacingLeft=4;spacingRight=4;overflow=hidden;points=[[0,0.5],[1,0.5]];portConstraint=eastwest;rotatable=0;whiteSpace=wrap;html=1;" vertex="1" parent="UXU0SN2zvPq1hkEczTm--24">
          <mxGeometry y="30" width="170" height="170" as="geometry" />
        </mxCell>
        <mxCell id="UXU0SN2zvPq1hkEczTm--26" value="Шаг 5" style="swimlane;fontStyle=0;childLayout=stackLayout;horizontal=1;startSize=30;horizontalStack=0;resizeParent=1;resizeParentMax=0;resizeLast=0;collapsible=1;marginBottom=0;whiteSpace=wrap;html=1;" vertex="1" parent="WIyWlLk6GJQsqaUBKTNV-1">
          <mxGeometry x="930" y="305" width="170" height="200" as="geometry" />
        </mxCell>
        <mxCell id="UXU0SN2zvPq1hkEczTm--27" value="Возвращаем списки кредитов и задолженностей в единой модели CredDebtTransfer и производим буферную вставку в схему получателя." style="text;strokeColor=none;fillColor=none;align=left;verticalAlign=middle;spacingLeft=4;spacingRight=4;overflow=hidden;points=[[0,0.5],[1,0.5]];portConstraint=eastwest;rotatable=0;whiteSpace=wrap;html=1;" vertex="1" parent="UXU0SN2zvPq1hkEczTm--26">
          <mxGeometry y="30" width="170" height="170" as="geometry" />
        </mxCell>
        <mxCell id="UXU0SN2zvPq1hkEczTm--29" style="edgeStyle=orthogonalEdgeStyle;rounded=0;orthogonalLoop=1;jettySize=auto;html=1;entryX=-0.002;entryY=0.371;entryDx=0;entryDy=0;entryPerimeter=0;" edge="1" parent="WIyWlLk6GJQsqaUBKTNV-1" source="UXU0SN2zvPq1hkEczTm--0" target="UXU0SN2zvPq1hkEczTm--15">
          <mxGeometry relative="1" as="geometry" />
        </mxCell>
        <mxCell id="UXU0SN2zvPq1hkEczTm--30" style="edgeStyle=orthogonalEdgeStyle;rounded=0;orthogonalLoop=1;jettySize=auto;html=1;entryX=0;entryY=0.5;entryDx=0;entryDy=0;" edge="1" parent="WIyWlLk6GJQsqaUBKTNV-1" source="UXU0SN2zvPq1hkEczTm--15" target="UXU0SN2zvPq1hkEczTm--20">
          <mxGeometry relative="1" as="geometry" />
        </mxCell>
        <mxCell id="UXU0SN2zvPq1hkEczTm--31" style="edgeStyle=orthogonalEdgeStyle;rounded=0;orthogonalLoop=1;jettySize=auto;html=1;entryX=0;entryY=0.5;entryDx=0;entryDy=0;" edge="1" parent="WIyWlLk6GJQsqaUBKTNV-1" source="UXU0SN2zvPq1hkEczTm--20" target="UXU0SN2zvPq1hkEczTm--23">
          <mxGeometry relative="1" as="geometry" />
        </mxCell>
        <mxCell id="UXU0SN2zvPq1hkEczTm--32" style="edgeStyle=orthogonalEdgeStyle;rounded=0;orthogonalLoop=1;jettySize=auto;html=1;" edge="1" parent="WIyWlLk6GJQsqaUBKTNV-1" source="UXU0SN2zvPq1hkEczTm--23" target="UXU0SN2zvPq1hkEczTm--25">
          <mxGeometry relative="1" as="geometry" />
        </mxCell>
        <mxCell id="UXU0SN2zvPq1hkEczTm--33" style="edgeStyle=orthogonalEdgeStyle;rounded=0;orthogonalLoop=1;jettySize=auto;html=1;entryX=0;entryY=0.5;entryDx=0;entryDy=0;" edge="1" parent="WIyWlLk6GJQsqaUBKTNV-1" source="UXU0SN2zvPq1hkEczTm--25" target="UXU0SN2zvPq1hkEczTm--34">
          <mxGeometry relative="1" as="geometry">
            <mxPoint x="690" y="460" as="targetPoint" />
          </mxGeometry>
        </mxCell>
        <mxCell id="UXU0SN2zvPq1hkEczTm--35" style="edgeStyle=orthogonalEdgeStyle;rounded=0;orthogonalLoop=1;jettySize=auto;html=1;entryX=0;entryY=0.5;entryDx=0;entryDy=0;" edge="1" parent="WIyWlLk6GJQsqaUBKTNV-1" source="UXU0SN2zvPq1hkEczTm--34" target="UXU0SN2zvPq1hkEczTm--27">
          <mxGeometry relative="1" as="geometry" />
        </mxCell>
        <mxCell id="UXU0SN2zvPq1hkEczTm--34" value="Все кредиты из списка ID кредитов выгружены" style="rhombus;whiteSpace=wrap;html=1;" vertex="1" parent="WIyWlLk6GJQsqaUBKTNV-1">
          <mxGeometry x="700" y="360" width="180" height="120" as="geometry" />
        </mxCell>
        <mxCell id="UXU0SN2zvPq1hkEczTm--36" value="Да" style="text;html=1;align=center;verticalAlign=middle;resizable=0;points=[];autosize=1;strokeColor=none;fillColor=none;" vertex="1" parent="WIyWlLk6GJQsqaUBKTNV-1">
          <mxGeometry x="870" y="378" width="40" height="30" as="geometry" />
        </mxCell>
        <mxCell id="UXU0SN2zvPq1hkEczTm--37" style="edgeStyle=orthogonalEdgeStyle;rounded=0;orthogonalLoop=1;jettySize=auto;html=1;entryX=0.444;entryY=1.002;entryDx=0;entryDy=0;entryPerimeter=0;" edge="1" parent="WIyWlLk6GJQsqaUBKTNV-1" source="UXU0SN2zvPq1hkEczTm--34" target="UXU0SN2zvPq1hkEczTm--23">
          <mxGeometry relative="1" as="geometry">
            <Array as="points">
              <mxPoint x="790" y="550" />
              <mxPoint x="296" y="550" />
            </Array>
          </mxGeometry>
        </mxCell>
        <mxCell id="UXU0SN2zvPq1hkEczTm--38" value="Нет" style="text;html=1;align=center;verticalAlign=middle;resizable=0;points=[];autosize=1;strokeColor=none;fillColor=none;" vertex="1" parent="WIyWlLk6GJQsqaUBKTNV-1">
          <mxGeometry x="790" y="498" width="40" height="30" as="geometry" />
        </mxCell>
        <mxCell id="UXU0SN2zvPq1hkEczTm--40" value="ФО - фактические операции&lt;br&gt;ПО - плановые операции&lt;br&gt;collectionId - используется для связи один-ко многим&lt;br&gt;batch - переменная количества выгружаемых кредитов за круг" style="text;html=1;align=center;verticalAlign=middle;resizable=0;points=[];autosize=1;strokeColor=none;fillColor=none;" vertex="1" parent="WIyWlLk6GJQsqaUBKTNV-1">
          <mxGeometry x="-160" y="110" width="370" height="70" as="geometry" />
        </mxCell>
        <mxCell id="UXU0SN2zvPq1hkEczTm--48" style="edgeStyle=orthogonalEdgeStyle;rounded=0;orthogonalLoop=1;jettySize=auto;html=1;entryX=0;entryY=0.5;entryDx=0;entryDy=0;" edge="1" parent="WIyWlLk6GJQsqaUBKTNV-1" source="UXU0SN2zvPq1hkEczTm--49" target="UXU0SN2zvPq1hkEczTm--51">
          <mxGeometry relative="1" as="geometry" />
        </mxCell>
        <mxCell id="UXU0SN2zvPq1hkEczTm--49" value="Подключение к ЦФТ" style="rounded=1;whiteSpace=wrap;html=1;" vertex="1" parent="WIyWlLk6GJQsqaUBKTNV-1">
          <mxGeometry x="-515" y="-170" width="120" height="60" as="geometry" />
        </mxCell>
        <mxCell id="UXU0SN2zvPq1hkEczTm--50" style="edgeStyle=orthogonalEdgeStyle;rounded=0;orthogonalLoop=1;jettySize=auto;html=1;entryX=0;entryY=0.5;entryDx=0;entryDy=0;" edge="1" parent="WIyWlLk6GJQsqaUBKTNV-1" source="UXU0SN2zvPq1hkEczTm--51" target="UXU0SN2zvPq1hkEczTm--53">
          <mxGeometry relative="1" as="geometry" />
        </mxCell>
        <mxCell id="UXU0SN2zvPq1hkEczTm--51" value="Актуализация справчоных данных ЦФТ" style="rounded=1;whiteSpace=wrap;html=1;" vertex="1" parent="WIyWlLk6GJQsqaUBKTNV-1">
          <mxGeometry x="-345" y="-170" width="120" height="60" as="geometry" />
        </mxCell>
        <mxCell id="UXU0SN2zvPq1hkEczTm--52" style="edgeStyle=orthogonalEdgeStyle;rounded=0;orthogonalLoop=1;jettySize=auto;html=1;entryX=0;entryY=0.5;entryDx=0;entryDy=0;" edge="1" parent="WIyWlLk6GJQsqaUBKTNV-1" source="UXU0SN2zvPq1hkEczTm--53" target="UXU0SN2zvPq1hkEczTm--54">
          <mxGeometry relative="1" as="geometry" />
        </mxCell>
        <mxCell id="UXU0SN2zvPq1hkEczTm--53" value="Выгрузка кредитов и расчет задолженностей пачками" style="rounded=1;whiteSpace=wrap;html=1;" vertex="1" parent="WIyWlLk6GJQsqaUBKTNV-1">
          <mxGeometry x="-170" y="-170" width="120" height="60" as="geometry" />
        </mxCell>
        <mxCell id="UXU0SN2zvPq1hkEczTm--54" value="Вставка общих значений в БД получателя" style="rounded=1;whiteSpace=wrap;html=1;" vertex="1" parent="WIyWlLk6GJQsqaUBKTNV-1">
          <mxGeometry y="-170" width="120" height="60" as="geometry" />
        </mxCell>
        <mxCell id="UXU0SN2zvPq1hkEczTm--55" value="&lt;b&gt;&lt;font style=&quot;font-size: 22px;&quot;&gt;Принцип работы сервиса&lt;/font&gt;&lt;/b&gt;" style="text;html=1;align=center;verticalAlign=middle;resizable=0;points=[];autosize=1;strokeColor=none;fillColor=none;" vertex="1" parent="WIyWlLk6GJQsqaUBKTNV-1">
          <mxGeometry x="-515" y="-260" width="300" height="40" as="geometry" />
        </mxCell>
        <mxCell id="UXU0SN2zvPq1hkEczTm--56" value="&lt;b&gt;&lt;font style=&quot;font-size: 22px;&quot;&gt;Принцип работы функционала в коде&lt;/font&gt;&lt;/b&gt;" style="text;html=1;align=center;verticalAlign=middle;resizable=0;points=[];autosize=1;strokeColor=none;fillColor=none;" vertex="1" parent="WIyWlLk6GJQsqaUBKTNV-1">
          <mxGeometry x="-530" y="-30" width="440" height="40" as="geometry" />
        </mxCell>
      </root>
    </mxGraphModel>
  </diagram>
</mxfile>
